<?xml version="1.0" encoding="UTF-8" standalone="no"?>
<svg
   xmlns:dc="http://purl.org/dc/elements/1.1/"
   xmlns:cc="http://creativecommons.org/ns#"
   xmlns:rdf="http://www.w3.org/1999/02/22-rdf-syntax-ns#"
   xmlns:svg="http://www.w3.org/2000/svg"
   xmlns="http://www.w3.org/2000/svg"
   xmlns:xlink="http://www.w3.org/1999/xlink"
   xmlns:sodipodi="http://sodipodi.sourceforge.net/DTD/sodipodi-0.dtd"
   xmlns:inkscape="http://www.inkscape.org/namespaces/inkscape"
   width="210mm"
   height="297mm"
   viewBox="0 0 210 297"
   version="1.1"
   id="svg400"
   sodipodi:docname="K LOGO.svg"
   inkscape:version="1.0.1 (3bc2e813f5, 2020-09-07)">
  <title
     id="title5656">K LOGO B</title>
  <defs
     id="defs394">
    <linearGradient
       inkscape:collect="always"
       id="linearGradient944">
      <stop
         style="stop-color:#060835;stop-opacity:0.60392159"
         offset="0"
         id="stop936" />
      <stop
         style="stop-color:#010109;stop-opacity:0.93725497"
         offset="0.16579179"
         id="stop938" />
      <stop
         style="stop-color:#5f001e;stop-opacity:1"
         offset="1"
         id="stop940" />
      <stop
         style="stop-color:#060d2f;stop-opacity:1"
         offset="1"
         id="stop942" />
    </linearGradient>
    <linearGradient
       inkscape:collect="always"
       id="linearGradient898">
      <stop
         style="stop-color:#060835;stop-opacity:0.60392159"
         offset="0"
         id="stop894" />
      <stop
         style="stop-color:#010109;stop-opacity:0.93725497"
         offset="0.06050178"
         id="stop904" />
      <stop
         style="stop-color:#5f001e;stop-opacity:1"
         offset="0.16579179"
         id="stop902" />
      <stop
         style="stop-color:#6fe4c5;stop-opacity:1"
         offset="1"
         id="stop896" />
    </linearGradient>
    <linearGradient
       inkscape:collect="always"
       xlink:href="#linearGradient898"
       id="linearGradient900"
       x1="55.061334"
       y1="237.98129"
       x2="83.491557"
       y2="237.98129"
       gradientUnits="userSpaceOnUse"
       gradientTransform="scale(3.7795276)" />
    <linearGradient
       inkscape:collect="always"
       xlink:href="#linearGradient944"
       id="linearGradient912"
       x1="54.107292"
       y1="244.47501"
       x2="71.610321"
       y2="226.97198"
       gradientUnits="userSpaceOnUse" />
  </defs>
  <sodipodi:namedview
     id="base"
     pagecolor="#ffffff"
     bordercolor="#666666"
     borderopacity="1.0"
     inkscape:pageopacity="0.0"
     inkscape:pageshadow="2"
     inkscape:zoom="2"
     inkscape:cx="266.60407"
     inkscape:cy="908.28082"
     inkscape:document-units="mm"
     inkscape:current-layer="layer1"
     inkscape:document-rotation="0"
     showgrid="false"
     showborder="false"
     inkscape:showpageshadow="false"
     inkscape:snap-bbox="true"
     showguides="false"
     inkscape:snap-center="true"
     inkscape:snap-text-baseline="true"
     inkscape:window-width="1366"
     inkscape:window-height="705"
     inkscape:window-x="-8"
     inkscape:window-y="-8"
     inkscape:window-maximized="1" />
  <metadata
     id="metadata397">
    <rdf:RDF>
      <cc:Work
         rdf:about="">
        <dc:format>image/svg+xml</dc:format>
        <dc:type
           rdf:resource="http://purl.org/dc/dcmitype/StillImage" />
        <dc:title>K LOGO B</dc:title>
      </cc:Work>
    </rdf:RDF>
  </metadata>
  <g
     inkscape:label="Layer 1"
     inkscape:groupmode="layer"
     id="layer1">
    <path
       id="rect548"
       style="fill:url(#linearGradient912);stroke-width:0.431938;fill-opacity:1;opacity:1;"
       d="m 62.156833,216.30421 c -3.858429,0.0283 -6.96495,3.04255 -6.96495,6.82285 0,3.78028 2.129475,25.08329 6.665342,25.11248 l 31.028786,0.19973 -0.199739,-32.35909 z"
       sodipodi:nodetypes="sssccs" />
    <path
       style="font-style:normal;font-variant:normal;font-weight:900;font-stretch:normal;font-size:182.61px;line-height:1.25;font-family:Arial;-inkscape-font-specification:'Arial Heavy';letter-spacing:0px;mix-blend-mode:normal;fill:#ecd000;fill-opacity:1;stroke-width:1.71889"
       d="m 55.306511,221.26521 c -0.461631,0.26475 -0.117845,24.5272 -0.179968,27.65203 -0.06179,3.10781 4.946239,5.81101 6.185466,5.82686 v 0 0.0163 h 1.292509 l 4.250135,0.0545 c -5e-6,-0.009 6e-6,-0.0457 0,-0.0545 h 0.923072 v -6.29231 l 3.339729,-4.30644 4.410048,10.59875 h 7.964055 l -7.964055,-16.04794 7.621531,-9.71991 h -8.592099 l -7.493186,9.85444 -0.321511,-9.85444 v 0 c -0.006,-1.15295 0.0053,0.98041 0,0 -9.85203,0.0334 -10.601589,-3.86527 -11.435737,-7.72739 -0.01851,-0.007 0.220247,-0.12629 0.203993,-0.11697 z"
       id="path646" />
    <path
       id="path888"
       style="font-style:normal;font-variant:normal;font-weight:900;font-stretch:normal;font-size:182.61px;line-height:1.25;font-family:Arial;-inkscape-font-specification:'Arial Heavy';letter-spacing:0px;mix-blend-mode:normal;fill:url(#linearGradient900);fill-opacity:1;stroke-width:6.49659"
       d="M 209.80273 835.83594 C 209.86417 835.80071 208.96324 836.25089 209.0332 836.27734 L 209.80273 835.83594 z M 209.0332 836.27734 C 207.28846 837.27797 208.58636 928.97868 208.35156 940.78906 C 214.13842 936.08218 219.97591 931.53677 225.78906 926.91406 C 214.3923 892.79793 211.0074 845.41792 209.0332 836.27734 z M 225.78906 926.91406 C 229.63207 938.41808 234.38812 948.40413 240.30664 954.91602 L 254.60547 924.08789 C 254.30434 916.33162 254.05888 910.12034 253.75977 902.43359 C 244.74067 911.56792 235.29915 919.3515 225.78906 926.91406 z M 253.75977 902.43359 C 253.9053 902.2862 254.04999 902.13638 254.19531 901.98828 L 252.25391 865.48438 C 252.24445 863.66817 252.96278 881.95237 253.75977 902.43359 z M 254.19531 901.98828 L 255.29102 922.60938 L 281.78906 865.48438 C 273.40595 880.26194 264.05551 891.9392 254.19531 901.98828 z M 281.78906 865.48438 L 285.45898 962.87305 L 315.55859 962.87305 L 285.45898 902.2207 L 314.26367 865.48438 L 281.78906 865.48438 z M 281.78906 865.48438 L 255.35938 923.87109 L 256.16797 939.0918 L 281.78906 865.48438 z M 255.35938 923.87109 L 255.29102 922.60938 L 254.60547 924.08789 C 254.62396 924.56412 254.63983 924.94679 254.6582 925.41992 L 255.35938 923.87109 z M 254.6582 925.41992 L 240.97656 955.64258 C 241.10922 955.78056 241.2451 955.90848 241.37891 956.04297 L 256.16797 962.87305 C 256.17633 964.41891 255.45634 945.97163 254.6582 925.41992 z M 256.16797 962.87305 C 250.58054 962.89199 245.68419 960.37024 241.37891 956.04297 L 240.89648 955.82031 L 237.73047 962.8125 C 237.71753 962.84108 237.69102 962.85982 237.67578 962.88672 L 246.4668 963 L 254.0293 963 C 255.04407 962.94876 256.16798 962.89344 256.16797 962.87305 z M 237.67578 962.88672 L 236.61523 962.87305 L 240.06445 955.43555 L 208.35156 940.78906 C 208.17233 949.80362 224.42517 960.45732 232.87109 963 L 237.5918 963 C 237.62037 962.96275 237.65248 962.92787 237.67578 962.88672 z M 240.06445 955.43555 L 240.89648 955.82031 L 240.97656 955.64258 C 240.75094 955.4079 240.52896 955.16063 240.30664 954.91602 L 240.06445 955.43555 z "
       transform="scale(0.26458333)" />
  </g>
</svg>
