<svg width="504" height="494" viewBox="0 0 504 494" fill="none" xmlns="http://www.w3.org/2000/svg">
<g id="K LOGO4 1">
<ellipse id="Ellipse 1" cx="248.5" cy="446" rx="238.5" ry="42" fill="#3A415F" fill-opacity="0.33"/>
<g id="logo">
<path id="rect548" d="M99.4393 18.5563C49.7159 18.8793 9.6824 53.2741 9.6824 96.4102C9.6824 139.546 37.1248 382.629 95.5782 382.963L495.444 385.242L492.87 16L99.4393 18.5563Z" fill="url(#paint0_linear)"/>
<path id="k" d="M11.1596 75.1651C5.21058 78.1861 9.6409 355.039 8.84033 390.696C8.04405 426.158 72.5822 457.004 88.552 457.185V457.371H105.209L159.98 457.992C159.98 457.89 159.98 457.471 159.98 457.371H171.875V385.571L214.914 336.431L271.746 457.371H374.378L271.746 274.252L369.964 163.34H259.239L162.674 275.786L158.531 163.34C158.454 150.184 158.599 174.527 158.531 163.34C31.5685 163.721 21.9091 119.234 11.1594 75.1646C10.9209 75.0847 13.9978 73.7235 13.7883 73.8298L11.1596 75.1651Z" fill="#ECD000"/>
<path id="k line" d="M13.7859 73.8307C13.9953 73.7243 10.9235 75.0835 11.162 75.1633L13.7859 73.8307ZM11.162 75.1633C5.21303 78.1843 9.63843 355.037 8.83784 390.694C28.5691 376.484 48.473 362.761 68.2939 348.804C29.4348 245.804 17.8934 102.76 11.162 75.1633ZM68.2939 348.804C81.3973 383.536 97.6138 413.685 117.794 433.345L166.548 340.272C165.521 316.855 164.685 298.102 163.665 274.895C132.913 302.473 100.72 325.972 68.2939 348.804ZM163.665 274.895C164.161 274.45 164.654 273.998 165.15 273.551L158.53 163.342C158.498 157.859 160.947 213.061 163.665 274.895ZM165.15 273.551L168.886 335.808L259.235 163.342C230.652 207.957 198.77 243.212 165.15 273.551ZM259.235 163.342L271.748 457.368H374.378L271.748 274.253L369.963 163.342H259.235ZM259.235 163.342L169.119 339.617L171.876 385.57L259.235 163.342ZM169.119 339.617L168.886 335.808L166.548 340.272C166.611 341.709 166.665 342.865 166.728 344.293L169.119 339.617ZM166.728 344.293L120.078 435.538C120.531 435.955 120.994 436.341 121.45 436.747L171.876 457.368C171.904 462.035 169.449 406.341 166.728 344.293ZM171.876 457.368C152.825 457.425 136.13 449.812 121.45 436.747L119.805 436.075L109.01 457.185C108.966 457.271 108.876 457.328 108.824 457.409L138.798 457.751H164.584C168.044 457.596 171.876 457.429 171.876 457.368ZM108.824 457.409L105.208 457.368L116.968 434.913L8.83784 390.694C8.22673 417.91 63.6435 450.074 92.4413 457.751H108.537C108.635 457.639 108.744 457.533 108.824 457.409ZM116.968 434.913L119.805 436.075L120.078 435.538C119.309 434.83 118.552 434.083 117.794 433.345L116.968 434.913Z" fill="url(#paint1_linear)"/>
</g>
</g>
<defs>
<linearGradient id="paint0_linear" x1="-4.29464" y1="340.006" x2="193.959" y2="116.105" gradientUnits="userSpaceOnUse">
<stop stop-color="#060835" stop-opacity="0.603922"/>
<stop offset="0.165792" stop-color="#010109" stop-opacity="0.937255"/>
<stop offset="1" stop-color="#060D2F"/>
</linearGradient>
<linearGradient id="paint1_linear" x1="7.99999" y1="265.908" x2="374.378" y2="265.908" gradientUnits="userSpaceOnUse">
<stop stop-color="#060835" stop-opacity="0.603922"/>
<stop offset="0.0605018" stop-color="#010109" stop-opacity="0.937255"/>
<stop offset="0.165792" stop-color="#5F001E"/>
<stop offset="1" stop-color="#6FE4C5"/>
</linearGradient>
</defs>
</svg>
